<svg version="1.1" id="Layer_1" xmlns="http://www.w3.org/2000/svg" xmlns:xlink="http://www.w3.org/1999/xlink" x="0px" y="0px" width="100%" viewBox="0 0 1830 2087" enable-background="new 0 0 1830 2087" xml:space="preserve">
<path fill="#FFFFFF" opacity="1.000000" stroke="none" d=" M996.000000,2088.000000   C664.000000,2088.000000 332.500000,2088.000000 1.000000,2088.000000   C1.000000,1392.333374 1.000000,696.666687 1.000000,1.000000   C611.000000,1.000000 1221.000000,1.000000 1831.000000,1.000000   C1831.000000,696.666687 1831.000000,1392.333374 1831.000000,2088.000000   C1552.833374,2088.000000 1274.666626,2088.000000 996.000000,2088.000000  M1543.020508,921.023682   C1543.020508,914.822937 1543.020508,908.622131 1543.020508,901.908875   C1533.860718,901.908875 1525.477173,901.908875 1517.020020,900.985657   C1517.020020,892.066162 1517.020020,883.146667 1517.020020,874.003235   C1481.717285,874.003235 1447.229492,873.988037 1412.741943,874.077026   C1411.713989,874.079651 1410.423096,874.949097 1409.702881,875.795593   C1400.625244,886.463806 1391.518433,897.111206 1382.669067,907.967651   C1379.123291,912.317566 1375.441895,916.251709 1375.756226,923.116455   C1376.510254,939.581787 1376.000000,956.105042 1376.000000,972.604919   C1376.000000,974.342285 1376.000000,976.079590 1376.000000,978.000000   C1351.307739,978.000000 1327.479004,977.969482 1303.650757,978.059753   C1301.801392,978.066772 1299.529053,978.387268 1298.176025,979.467407   C1288.528809,987.168396 1279.302368,995.411560 1269.476440,1002.868652   C1261.630981,1008.822693 1255.493896,1015.110962 1256.994263,1025.987671   C1254.018433,1025.976318 1251.042480,1025.964844 1248.020020,1025.023315   C1248.020020,1018.822876 1248.020020,1012.622375 1248.020020,1005.907776   C1238.860107,1005.907776 1230.476929,1005.907776 1222.020020,1004.984680   C1222.020020,996.084717 1222.020020,987.184753 1222.020020,977.881592   C1196.519897,977.881592 1171.779175,977.881592 1147.011963,976.963318   C1147.007935,960.142151 1146.922241,943.320312 1147.066650,926.500366   C1147.096313,923.046204 1146.095337,921.737183 1142.551514,921.936096   C1138.069946,922.187622 1133.562134,921.969421 1129.020508,921.023682   C1129.020508,914.822937 1129.020508,908.622131 1129.020508,901.908875   C1119.860718,901.908875 1111.477173,901.908875 1103.020020,900.985657   C1103.020020,892.072815 1103.020020,883.159973 1103.020020,874.445435   C1101.904907,874.190430 1101.585815,874.053772 1101.266724,874.053528   C1067.300415,874.029236 1033.333984,873.992432 999.368042,874.086365   C998.046204,874.089966 996.356873,875.035217 995.465576,876.077637   C986.479309,886.586975 977.455139,897.073059 968.817200,907.866272   C965.466736,912.052795 961.437317,915.615112 961.750854,922.428467   C962.515198,939.043640 962.000000,955.717712 962.000000,972.368042   C962.000000,974.129822 962.000000,975.891602 962.000000,978.000000   C959.513000,978.000000 957.705261,978.000000 955.897522,978.000000   C933.752563,978.000000 911.607361,977.964355 889.462891,978.065613   C887.634521,978.073975 885.396545,978.500732 884.048645,979.595093   C871.281677,989.959839 858.666443,1000.511536 846.001770,1010.070679   C846.001221,991.968811 846.052612,973.866577 845.932800,955.765503   C845.918091,953.548950 845.673096,950.738464 844.357300,949.230835   C839.152039,943.266479 833.478210,937.711121 827.707886,931.383362   C822.521545,925.473083 817.419189,919.486267 812.119873,913.679077   C808.507690,909.720703 804.620178,906.013550 800.305420,901.799561   C788.487427,888.745850 776.728516,875.638000 764.835815,862.652649   C751.492188,848.083130 738.024902,833.626831 724.617554,819.115662   C720.684937,814.859314 716.252441,810.938904 713.020142,806.201965   C710.542175,802.570679 707.838928,801.937866 703.935669,801.939392   C525.467834,802.009216 346.999939,802.040222 168.532379,801.832764   C162.295425,801.825562 157.807114,803.857117 153.679565,807.838379   C142.914307,818.221985 132.243744,828.704773 121.395851,839.000977   C118.910950,841.359375 117.921768,843.767822 117.923859,847.234070   C118.012474,994.207520 118.000000,1141.181030 118.000000,1288.154541   C118.000000,1289.937866 118.000000,1291.721191 118.000000,1294.109619   C126.985840,1294.109619 135.438004,1294.109619 143.969162,1295.027466   C143.969162,1303.864502 143.969162,1312.701538 143.969162,1322.074097   C150.449768,1322.074097 156.186417,1322.074097 161.979294,1322.996216   C161.979294,1329.236694 161.979294,1335.477051 161.979294,1341.429565   C163.270462,1341.766113 163.592026,1341.923218 163.913727,1341.923462   C206.203613,1341.956177 248.493561,1342.000244 290.783234,1341.910889   C292.385284,1341.907471 294.345642,1340.984985 295.529358,1339.853149   C307.424164,1328.480103 319.117523,1316.895874 331.047638,1305.560669   C333.932007,1302.820190 335.100616,1300.013428 335.087311,1296.001709   C334.960022,1257.708008 335.037811,1219.413452 335.980133,1181.025757   C341.288239,1181.048462 346.596375,1181.071045 351.973572,1182.014404   C351.973572,1190.856812 351.973572,1199.699341 351.973572,1209.061646   C358.456940,1209.061646 364.195953,1209.061646 369.982727,1209.986206   C369.982727,1216.230225 369.982727,1222.474365 369.982727,1229.000000   C373.103729,1229.000000 375.257904,1229.000000 377.412079,1229.000000   C497.864716,1229.000000 618.317566,1228.907837 738.769653,1229.175049   C748.413574,1229.196411 755.836426,1228.036011 762.344604,1219.611084   C770.935181,1208.490479 781.451111,1198.870361 790.976135,1188.455688   C807.205933,1170.710083 823.063354,1152.614990 839.622253,1135.184570   C844.252380,1130.310791 847.084351,1125.732300 846.938965,1119.016724   C854.621765,1119.030029 862.304504,1119.043335 869.997925,1119.985474   C869.997925,1128.843018 869.997925,1137.700439 869.997925,1147.017700   C876.492432,1147.017700 882.245117,1147.017700 888.000000,1147.951416   C888.000061,1152.450439 888.275452,1156.971313 887.921265,1161.442261   C887.579468,1165.756958 888.853760,1167.155884 893.398315,1167.110474   C916.224121,1166.882446 939.053589,1167.025879 961.974487,1167.966919   C961.974487,1186.516235 961.974487,1205.065552 961.974487,1224.075439   C971.093262,1224.075439 979.538574,1224.075439 987.995850,1225.001587   C987.995850,1233.855103 987.995850,1242.708496 987.995850,1252.033813   C994.493042,1252.033813 1000.243774,1252.033813 1005.998657,1252.964600   C1005.999146,1257.461304 1006.276062,1261.979858 1005.920898,1266.448364   C1005.577759,1270.766602 1006.863220,1272.140259 1011.398499,1272.108276   C1041.208374,1271.898071 1071.020752,1271.943237 1100.831543,1272.076050   C1104.325928,1272.091553 1106.725830,1270.957764 1109.078979,1268.502197   C1120.814941,1256.255737 1132.764771,1244.213135 1144.425415,1231.896362   C1145.922241,1230.315186 1146.865356,1227.561523 1146.890137,1225.337891   C1147.087158,1207.686401 1147.164307,1190.029175 1146.887573,1172.379761   C1146.815918,1167.809326 1148.300171,1166.867065 1152.564941,1166.906006   C1174.713501,1167.108276 1196.865845,1167.093628 1219.013916,1166.869995   C1221.505249,1166.844727 1224.555664,1165.640381 1226.366333,1163.939209   C1238.120117,1152.896118 1249.369263,1141.306885 1261.309814,1130.476562   C1265.098755,1127.039917 1266.654175,1123.738281 1266.935913,1119.000000   C1272.619629,1119.019531 1278.303467,1119.038940 1283.996460,1119.987061   C1283.996460,1128.844116 1283.996460,1137.701172 1283.996460,1147.019775   C1290.491089,1147.019775 1296.243530,1147.019775 1301.999756,1147.953125   C1301.999878,1152.452026 1302.275757,1156.972900 1301.921021,1161.443726   C1301.578491,1165.760986 1302.857666,1167.155640 1307.399658,1167.110352   C1330.224976,1166.882690 1353.054077,1167.025757 1375.974365,1167.966919   C1375.974365,1186.516235 1375.974365,1205.065430 1375.974365,1224.075439   C1385.093262,1224.075439 1393.538574,1224.075439 1401.995850,1225.001587   C1401.995850,1233.855225 1401.995850,1242.708740 1401.995850,1252.033813   C1408.493652,1252.033813 1414.244629,1252.033813 1419.999512,1252.964600   C1419.999756,1257.461914 1420.277222,1261.981201 1419.920898,1266.450073   C1419.576294,1270.773315 1420.869873,1272.140137 1425.401611,1272.108276   C1455.215088,1271.898560 1485.031494,1272.079834 1514.844849,1271.861206   C1517.468750,1271.842041 1520.738159,1270.534302 1522.587769,1268.697388   C1534.740845,1256.627075 1546.660156,1244.317139 1558.439941,1231.880981   C1559.935913,1230.301758 1560.864990,1227.541992 1560.890747,1225.315796   C1561.089233,1208.161865 1560.999146,1191.004883 1561.000244,1173.848755   C1561.000732,1167.001709 1561.002563,1167.000488 1568.092773,1167.000244   C1589.746094,1166.999634 1611.400024,1167.066772 1633.052124,1166.900146   C1635.300537,1166.882812 1638.110840,1166.092285 1639.688354,1164.619385   C1650.260742,1154.748657 1660.558228,1144.583740 1670.972900,1134.543457   C1673.361328,1132.240723 1675.974365,1130.160400 1678.249390,1127.755859   C1679.158691,1126.794800 1679.922241,1125.235229 1679.926025,1123.945557   C1680.016846,1092.465210 1679.978149,1060.984497 1680.028931,1029.503906   C1680.032959,1026.956909 1679.175903,1025.903931 1676.556030,1025.967041   C1671.729248,1026.083252 1666.896729,1025.970703 1662.020020,1025.023315   C1662.020020,1018.822876 1662.020020,1012.622375 1662.020020,1005.907776   C1652.860107,1005.907776 1644.476929,1005.907776 1636.020020,1004.984680   C1636.020020,996.084717 1636.020020,987.184753 1636.020020,977.881592   C1610.519897,977.881592 1585.779175,977.881592 1561.011963,976.963318   C1561.007935,960.142151 1560.922241,943.320312 1561.066650,926.500366   C1561.096313,923.046204 1560.095337,921.737183 1556.551514,921.936096   C1552.069946,922.187622 1547.562134,921.969421 1543.020508,921.023682  z"/>
<path fill="#698DC8" opacity="1.000000" stroke="none" d=" M143.890152,1294.109619   C135.438004,1294.109619 126.985840,1294.109619 118.000000,1294.109619   C118.000000,1291.721191 118.000000,1289.937866 118.000000,1288.154541   C118.000000,1141.181030 118.012474,994.207520 117.923859,847.234070   C117.921768,843.767822 118.910950,841.359375 121.395851,839.000977   C132.243744,828.704773 142.914307,818.221985 153.679565,807.838379   C157.807114,803.857117 162.295425,801.825562 168.532379,801.832764   C346.999939,802.040222 525.467834,802.009216 703.935669,801.939392   C707.838928,801.937866 710.542175,802.570679 713.020142,806.201965   C716.252441,810.938904 720.684937,814.859314 724.617554,819.115662   C738.024902,833.626831 751.492188,848.083130 764.835815,862.652649   C776.728516,875.638000 788.487427,888.745850 800.633911,902.447266   C800.988403,961.056824 801.031494,1019.018799 800.960876,1076.980591   C800.958740,1078.780884 800.258179,1081.016479 799.076294,1082.314209   C779.943420,1103.323364 760.651428,1124.187622 741.458374,1145.142212   C732.821655,1154.571777 724.188599,1164.011230 715.817566,1173.674683   C711.449646,1178.716797 706.886597,1181.183960 699.674561,1181.165283   C586.081970,1180.871338 472.488312,1180.958008 358.894897,1180.964478   C356.564758,1180.964600 354.234619,1181.048706 351.904480,1181.093750   C346.596375,1181.071045 341.288239,1181.048462 335.064575,1181.000488   C331.565063,1180.854614 328.981049,1180.734131 326.494019,1180.618164   C326.296722,1179.559814 326.128021,1179.076416 326.127716,1178.593018   C326.105835,1145.098511 326.054321,1111.603760 326.203308,1078.109985   C326.211548,1076.254272 327.665558,1074.245361 328.844025,1072.590820   C330.722626,1069.953491 332.935577,1067.554443 335.326843,1064.929443   C336.848633,1063.951660 338.176636,1063.230957 339.232849,1062.224976   C347.772003,1054.092529 356.385559,1046.031128 364.691467,1037.665039   C367.380035,1034.957153 370.042145,1033.917603 373.824036,1033.923340   C443.482849,1034.028076 513.141846,1034.019287 582.800659,1033.913330   C585.053223,1033.909912 588.014404,1033.311279 589.442566,1031.830322   C600.480713,1020.383911 611.222046,1008.651306 622.395142,996.965332   C624.552979,995.373169 626.370911,993.822998 628.647888,991.881470   C623.150757,986.241211 618.123352,981.082947 612.940430,975.626770   C607.004333,969.121338 600.608765,963.365356 595.621582,956.575073   C590.937317,950.197266 585.239136,948.050171 577.841919,948.054077   C484.351074,948.103638 390.860168,948.122742 297.369537,947.986755   C292.364471,947.979492 290.822144,949.313538 290.848450,954.432312   C291.049896,993.594116 290.959015,1032.757446 290.959015,1071.920288   C290.959015,1130.581177 290.933929,1189.242188 291.023712,1247.902954   C291.028870,1251.284424 290.250763,1253.653931 287.659851,1256.089600   C275.651886,1267.378052 263.850586,1278.890015 252.139404,1290.487671   C249.576447,1293.025757 247.022675,1294.093750 243.376877,1294.082397   C210.214996,1293.978638 177.052475,1294.073120 143.890152,1294.109619  z"/>
<path fill="#5BBCAA" opacity="1.000000" stroke="none" d=" M1147.038574,977.881592   C1171.779175,977.881592 1196.519897,977.881592 1222.020020,977.881592   C1222.020020,987.184753 1222.020020,996.084717 1222.007690,1005.920166   C1221.980713,1028.851440 1222.073120,1050.848511 1221.809937,1072.841187   C1221.778564,1075.462280 1220.477539,1078.739868 1218.629150,1080.559082   C1206.419922,1092.575439 1193.965942,1104.347168 1181.392822,1115.983765   C1179.924194,1117.342896 1177.241333,1117.940796 1175.115479,1117.954224   C1153.120361,1118.093384 1131.124023,1118.039917 1109.128052,1118.039917   C1107.207153,1118.039917 1105.286255,1118.039917 1102.951416,1118.039917   C1102.951416,1120.683716 1102.951416,1122.492065 1102.951416,1124.300415   C1102.951416,1141.630615 1103.021240,1158.961304 1102.861084,1176.290039   C1102.841431,1178.406372 1102.161499,1181.025635 1100.808716,1182.533936   C1094.480103,1189.589722 1087.799072,1196.328857 1081.262695,1203.198853   C1075.759399,1208.983032 1070.434204,1214.949829 1064.692627,1220.485474   C1063.133667,1221.988403 1060.357788,1222.914185 1058.130737,1222.932617   C1036.636108,1223.111450 1015.139404,1223.014038 993.643555,1223.084839   C991.755981,1223.091064 989.870422,1223.730225 987.983948,1224.075439   C979.538574,1224.075439 971.093262,1224.075439 961.974487,1224.075439   C961.974487,1205.065552 961.974487,1186.516235 962.004883,1167.036377   C962.029419,1159.404541 962.023560,1152.703247 962.299377,1145.697632   C962.580994,1136.483032 962.580994,1127.572754 962.580994,1118.410767   C961.197327,1118.269165 960.075073,1118.054810 958.952759,1118.054077   C930.681213,1118.035278 902.409729,1118.024536 874.138245,1118.081909   C872.753967,1118.084717 871.370911,1118.717407 869.987305,1119.056641   C862.304504,1119.043335 854.621765,1119.030029 846.223389,1118.740723   C845.043823,1116.965088 844.178406,1115.466309 844.174744,1113.965454   C844.097046,1081.637329 844.082214,1049.308960 844.196594,1016.981079   C844.203613,1014.988403 845.376892,1012.999817 846.007507,1011.009399   C858.666443,1000.511536 871.281677,989.959839 884.048645,979.595093   C885.396545,978.500732 887.634521,978.073975 889.462891,978.065613   C911.607361,977.964355 933.752563,978.000000 955.897522,978.000000   C957.705261,978.000000 959.513000,978.000000 962.000000,978.000000   C962.000000,975.891602 962.000000,974.129822 962.000000,972.368042   C962.000000,955.717712 962.515198,939.043640 961.750854,922.428467   C961.437317,915.615112 965.466736,912.052795 968.817200,907.866272   C977.455139,897.073059 986.479309,886.586975 995.465576,876.077637   C996.356873,875.035217 998.046204,874.089966 999.368042,874.086365   C1033.333984,873.992432 1067.300415,874.029236 1101.266724,874.053528   C1101.585815,874.053772 1101.904907,874.190430 1103.020020,874.445435   C1103.020020,883.159973 1103.020020,892.072815 1103.007080,901.921143   C1102.994019,927.738403 1102.994019,952.620300 1102.994019,978.013062   C1112.108032,978.013062 1120.549438,978.013062 1129.458130,978.055298   C1135.629761,978.025574 1141.334229,977.953613 1147.038574,977.881592  z"/>
<path fill="#5BBCAA" opacity="1.000000" stroke="none" d=" M1257.881836,1025.961426   C1255.493896,1015.110962 1261.630981,1008.822693 1269.476440,1002.868652   C1279.302368,995.411560 1288.528809,987.168396 1298.176025,979.467407   C1299.529053,978.387268 1301.801392,978.066772 1303.650757,978.059753   C1327.479004,977.969482 1351.307739,978.000000 1376.000000,978.000000   C1376.000000,976.079590 1376.000000,974.342285 1376.000000,972.604919   C1376.000000,956.105042 1376.510254,939.581787 1375.756226,923.116455   C1375.441895,916.251709 1379.123291,912.317566 1382.669067,907.967651   C1391.518433,897.111206 1400.625244,886.463806 1409.702881,875.795593   C1410.423096,874.949097 1411.713989,874.079651 1412.741943,874.077026   C1447.229492,873.988037 1481.717285,874.003235 1517.020020,874.003235   C1517.020020,883.146667 1517.020020,892.066162 1517.007080,901.921143   C1516.994019,927.738403 1516.994019,952.620300 1516.994019,978.013062   C1526.108032,978.013062 1534.549438,978.013062 1543.458130,978.055298   C1549.629761,978.025574 1555.334229,977.953552 1561.038574,977.881592   C1585.779175,977.881592 1610.519897,977.881592 1636.020020,977.881592   C1636.020020,987.184753 1636.020020,996.084717 1636.007568,1005.920166   C1635.980713,1028.851440 1636.072998,1050.848389 1635.809937,1072.841187   C1635.778564,1075.462402 1634.477539,1078.739746 1632.629150,1080.558960   C1620.420044,1092.575317 1607.966064,1104.347168 1595.392700,1115.983643   C1593.924194,1117.342896 1591.241333,1117.940796 1589.115479,1117.954224   C1567.120361,1118.093384 1545.124023,1118.039795 1523.128052,1118.039917   C1521.207153,1118.039917 1519.286255,1118.039917 1516.951416,1118.039917   C1516.951416,1120.683594 1516.951416,1122.491943 1516.951416,1124.300293   C1516.951416,1141.630493 1517.021118,1158.961182 1516.861084,1176.289917   C1516.841553,1178.406250 1516.161621,1181.025635 1514.808838,1182.533813   C1508.480225,1189.589600 1501.799072,1196.328735 1495.262695,1203.198853   C1489.759399,1208.983032 1484.434326,1214.949829 1478.692627,1220.485596   C1477.133911,1221.988647 1474.357910,1222.914307 1472.130859,1222.932739   C1450.636230,1223.111572 1429.139526,1223.014160 1407.643677,1223.084839   C1405.755981,1223.091064 1403.870483,1223.730225 1401.983887,1224.075439   C1393.538574,1224.075439 1385.093262,1224.075439 1375.974365,1224.075439   C1375.974365,1205.065430 1375.974365,1186.516235 1376.004883,1167.036377   C1376.028687,1159.404541 1376.021851,1152.703125 1376.296875,1145.697754   C1376.578735,1136.483521 1376.578735,1127.573364 1376.578735,1118.411743   C1375.188965,1118.269775 1374.070068,1118.056396 1372.950928,1118.055664   C1344.679810,1118.036987 1316.408813,1118.026123 1288.137817,1118.083374   C1286.753540,1118.086182 1285.370728,1118.718994 1283.987183,1119.058350   C1278.303467,1119.038940 1272.619629,1119.019531 1266.200317,1118.692871   C1263.195312,1118.173218 1260.926025,1117.960571 1258.122681,1117.697876   C1258.122681,1114.876099 1258.129150,1112.260010 1258.121704,1109.643921   C1258.043091,1081.749756 1257.962158,1053.855591 1257.881836,1025.961426  z"/>
<path fill="#ADBBE2" opacity="1.000000" stroke="none" d=" M143.929657,1294.568604   C177.052475,1294.073120 210.214996,1293.978638 243.376877,1294.082397   C247.022675,1294.093750 249.576447,1293.025757 252.139404,1290.487671   C263.850586,1278.890015 275.651886,1267.378052 287.659851,1256.089600   C290.250763,1253.653931 291.028870,1251.284424 291.023712,1247.902954   C290.933929,1189.242188 290.959015,1130.581177 290.959015,1071.920288   C290.959015,1032.757446 291.049896,993.594116 290.848450,954.432312   C290.822144,949.313538 292.364471,947.979492 297.369537,947.986755   C390.860168,948.122742 484.351074,948.103638 577.841919,948.054077   C585.239136,948.050171 590.937317,950.197266 595.621582,956.575073   C600.608765,963.365356 607.004333,969.121338 612.463318,975.663879   C516.814087,976.008667 421.486481,976.018494 326.158875,976.028320   C316.987274,976.029297 316.987061,976.029358 316.987030,984.913391   C316.986938,1026.744263 316.987000,1068.575195 316.987000,1110.406006   C316.987000,1165.569336 316.959869,1220.732788 317.052856,1275.895996   C317.058594,1279.284546 316.244537,1281.614014 313.653534,1284.048462   C301.645782,1295.329956 289.855042,1306.846802 278.163666,1318.457642   C275.597565,1321.005981 273.061890,1322.090576 269.414856,1322.079712   C233.584579,1321.972046 197.753738,1322.049316 161.923065,1322.073975   C156.186417,1322.074097 150.449768,1322.074097 143.969162,1322.074097   C143.969162,1312.701538 143.969162,1303.864502 143.929657,1294.568604  z"/>
<path fill="#ADBBE2" opacity="1.000000" stroke="none" d=" M351.939026,1181.554077   C354.234619,1181.048706 356.564758,1180.964600 358.894897,1180.964478   C472.488312,1180.958008 586.081970,1180.871338 699.674561,1181.165283   C706.886597,1181.183960 711.449646,1178.716797 715.817566,1173.674683   C724.188599,1164.011230 732.821655,1154.571777 741.458374,1145.142212   C760.651428,1124.187622 779.943420,1103.323364 799.076294,1082.314209   C800.258179,1081.016479 800.958740,1078.780884 800.960876,1076.980591   C801.031494,1019.018799 800.988403,961.056824 800.909058,902.644531   C804.620178,906.013550 808.507690,909.720703 812.119873,913.679077   C817.419189,919.486267 822.521545,925.473083 827.549438,931.988708   C827.264709,934.573608 827.028992,936.553101 827.028259,938.532715   C827.008362,993.507874 827.040405,1048.483154 826.918091,1103.457886   C826.912720,1105.879150 826.157166,1108.805054 824.678833,1110.624756   C819.557556,1116.928589 814.045959,1122.924683 808.531616,1128.898071   C791.292786,1147.572144 773.957825,1166.157471 756.720581,1184.833130   C751.771912,1190.194702 746.960022,1195.687256 742.210693,1201.227295   C737.858582,1206.303955 733.348206,1209.271851 725.770935,1209.226318   C657.304382,1208.814575 588.834351,1208.975708 520.365295,1208.988403   C470.221832,1208.997803 420.078400,1209.036255 369.934937,1209.061646   C364.195953,1209.061646 358.456940,1209.061646 351.973572,1209.061646   C351.973572,1199.699341 351.973572,1190.856812 351.939026,1181.554077  z"/>
<path fill="#D1D8EF" opacity="1.000000" stroke="none" d=" M161.951172,1322.535156   C197.753738,1322.049316 233.584579,1321.972046 269.414856,1322.079712   C273.061890,1322.090576 275.597565,1321.005981 278.163666,1318.457642   C289.855042,1306.846802 301.645782,1295.329956 313.653534,1284.048462   C316.244537,1281.614014 317.058594,1279.284546 317.052856,1275.895996   C316.959869,1220.732788 316.987000,1165.569336 316.987000,1110.406006   C316.987000,1068.575195 316.986938,1026.744263 316.987030,984.913391   C316.987061,976.029358 316.987274,976.029297 326.158875,976.028320   C421.486481,976.018494 516.814087,976.008667 612.618774,975.961731   C618.123352,981.082947 623.150757,986.241211 628.647888,991.881470   C626.370911,993.822998 624.552979,995.373169 621.922058,996.962769   C525.917664,997.002136 430.726196,997.002136 335.847748,997.002136   C335.396515,998.024475 335.152313,998.320129 335.151489,998.616455   C335.091095,1020.762451 335.049896,1042.908569 335.007141,1065.054565   C332.935577,1067.554443 330.722626,1069.953491 328.844025,1072.590820   C327.665558,1074.245361 326.211548,1076.254272 326.203308,1078.109985   C326.054321,1111.603760 326.105835,1145.098511 326.127716,1178.593018   C326.128021,1179.076416 326.296722,1179.559814 326.494019,1180.618164   C328.981049,1180.734131 331.565063,1180.854614 334.602875,1181.047119   C335.037811,1219.413452 334.960022,1257.708008 335.087311,1296.001709   C335.100616,1300.013428 333.932007,1302.820190 331.047638,1305.560669   C319.117523,1316.895874 307.424164,1328.480103 295.529358,1339.853149   C294.345642,1340.984985 292.385284,1341.907471 290.783234,1341.910889   C248.493561,1342.000244 206.203613,1341.956177 163.913727,1341.923462   C163.592026,1341.923218 163.270462,1341.766113 161.979294,1341.429565   C161.979294,1335.477051 161.979294,1329.236694 161.951172,1322.535156  z"/>
<path fill="#D1D8EF" opacity="1.000000" stroke="none" d=" M369.958832,1209.523926   C420.078400,1209.036255 470.221832,1208.997803 520.365295,1208.988403   C588.834351,1208.975708 657.304382,1208.814575 725.770935,1209.226318   C733.348206,1209.271851 737.858582,1206.303955 742.210693,1201.227295   C746.960022,1195.687256 751.771912,1190.194702 756.720581,1184.833130   C773.957825,1166.157471 791.292786,1147.572144 808.531616,1128.898071   C814.045959,1122.924683 819.557556,1116.928589 824.678833,1110.624756   C826.157166,1108.805054 826.912720,1105.879150 826.918091,1103.457886   C827.040405,1048.483154 827.008362,993.507874 827.028259,938.532715   C827.028992,936.553101 827.264709,934.573608 827.684509,932.299072   C833.478210,937.711121 839.152039,943.266479 844.357300,949.230835   C845.673096,950.738464 845.918091,953.548950 845.932800,955.765503   C846.052612,973.866577 846.001221,991.968811 846.004639,1010.540039   C845.376892,1012.999817 844.203613,1014.988403 844.196594,1016.981079   C844.082214,1049.308960 844.097046,1081.637329 844.174744,1113.965454   C844.178406,1115.466309 845.043823,1116.965088 845.755920,1118.770996   C847.084351,1125.732300 844.252380,1130.310791 839.622253,1135.184570   C823.063354,1152.614990 807.205933,1170.710083 790.976135,1188.455688   C781.451111,1198.870361 770.935181,1208.490479 762.344604,1219.611084   C755.836426,1228.036011 748.413574,1229.196411 738.769653,1229.175049   C618.317566,1228.907837 497.864716,1229.000000 377.412079,1229.000000   C375.257904,1229.000000 373.103729,1229.000000 369.982727,1229.000000   C369.982727,1222.474365 369.982727,1216.230225 369.958832,1209.523926  z"/>
<path fill="#A9D7CC" opacity="1.000000" stroke="none" d=" M987.989868,1224.538574   C989.870422,1223.730225 991.755981,1223.091064 993.643555,1223.084839   C1015.139404,1223.014038 1036.636108,1223.111450 1058.130737,1222.932617   C1060.357788,1222.914185 1063.133667,1221.988403 1064.692627,1220.485474   C1070.434204,1214.949829 1075.759399,1208.983032 1081.262695,1203.198853   C1087.799072,1196.328857 1094.480103,1189.589722 1100.808716,1182.533936   C1102.161499,1181.025635 1102.841431,1178.406372 1102.861084,1176.290039   C1103.021240,1158.961304 1102.951416,1141.630615 1102.951416,1124.300415   C1102.951416,1122.492065 1102.951416,1120.683716 1102.951416,1118.039917   C1105.286255,1118.039917 1107.207153,1118.039917 1109.128052,1118.039917   C1131.124023,1118.039917 1153.120361,1118.093384 1175.115479,1117.954224   C1177.241333,1117.940796 1179.924194,1117.342896 1181.392822,1115.983765   C1193.965942,1104.347168 1206.419922,1092.575439 1218.629150,1080.559082   C1220.477539,1078.739868 1221.778564,1075.462280 1221.809937,1072.841187   C1222.073120,1050.848511 1221.980713,1028.851440 1222.044434,1006.381714   C1230.476929,1005.907776 1238.860107,1005.907776 1248.020020,1005.907776   C1248.020020,1012.622375 1248.020020,1018.822876 1248.010498,1025.960938   C1247.992065,1051.558228 1248.079956,1076.218872 1247.833252,1100.876221   C1247.807007,1103.496826 1246.488647,1106.777466 1244.635742,1108.597290   C1232.420044,1120.595703 1219.959473,1132.348999 1207.379883,1143.967041   C1205.909180,1145.325317 1203.226196,1145.920898 1201.099365,1145.934204   C1178.939697,1146.072632 1156.777100,1146.165771 1134.619629,1145.903076   C1129.858887,1145.846680 1128.818970,1147.374512 1128.878662,1151.827393   C1129.113159,1169.319336 1129.045166,1186.817017 1128.882690,1204.310669   C1128.863037,1206.421997 1128.161865,1209.052979 1126.794312,1210.539429   C1118.686035,1219.351318 1110.298462,1227.906860 1101.982178,1236.526733   C1098.859497,1239.763550 1095.175049,1242.596313 1092.659424,1246.243164   C1090.035156,1250.047485 1087.063599,1251.142090 1082.645630,1251.107300   C1058.987061,1250.921143 1035.326050,1250.996582 1011.666199,1251.063354   C1009.774719,1251.068726 1007.885010,1251.695679 1005.994507,1252.033691   C1000.243774,1252.033813 994.493042,1252.033813 987.995850,1252.033813   C987.995850,1242.708496 987.995850,1233.855103 987.989868,1224.538574  z"/>
<path fill="#A9D7CC" opacity="1.000000" stroke="none" d=" M1401.989868,1224.538574   C1403.870483,1223.730225 1405.755981,1223.091064 1407.643677,1223.084839   C1429.139526,1223.014160 1450.636230,1223.111572 1472.130859,1222.932739   C1474.357910,1222.914307 1477.133911,1221.988647 1478.692627,1220.485596   C1484.434326,1214.949829 1489.759399,1208.983032 1495.262695,1203.198853   C1501.799072,1196.328735 1508.480225,1189.589600 1514.808838,1182.533813   C1516.161621,1181.025635 1516.841553,1178.406250 1516.861084,1176.289917   C1517.021118,1158.961182 1516.951416,1141.630493 1516.951416,1124.300293   C1516.951416,1122.491943 1516.951416,1120.683594 1516.951416,1118.039917   C1519.286255,1118.039917 1521.207153,1118.039917 1523.128052,1118.039917   C1545.124023,1118.039795 1567.120361,1118.093384 1589.115479,1117.954224   C1591.241333,1117.940796 1593.924194,1117.342896 1595.392700,1115.983643   C1607.966064,1104.347168 1620.420044,1092.575317 1632.629150,1080.558960   C1634.477539,1078.739746 1635.778564,1075.462402 1635.809937,1072.841187   C1636.072998,1050.848389 1635.980713,1028.851440 1636.044434,1006.381714   C1644.476929,1005.907776 1652.860107,1005.907776 1662.020020,1005.907776   C1662.020020,1012.622375 1662.020020,1018.822876 1662.010376,1025.960938   C1661.992065,1051.558105 1662.079834,1076.218872 1661.833130,1100.876099   C1661.806763,1103.496704 1660.488892,1106.777466 1658.636108,1108.597412   C1646.420410,1120.595825 1633.959839,1132.349121 1621.380127,1143.966919   C1619.909302,1145.325195 1617.226318,1145.920776 1615.099609,1145.934204   C1592.939941,1146.072632 1570.777466,1146.166016 1548.619995,1145.903320   C1543.859863,1145.846802 1542.818848,1147.373779 1542.878662,1151.827026   C1543.113159,1169.318970 1543.045166,1186.816528 1542.882935,1204.310181   C1542.863403,1206.421509 1542.162231,1209.052612 1540.794556,1210.538940   C1532.686401,1219.350830 1524.298828,1227.906250 1515.982788,1236.526245   C1512.859985,1239.763184 1509.175659,1242.596069 1506.659668,1246.242554   C1504.035278,1250.046021 1501.064697,1251.142212 1496.646362,1251.107422   C1472.987793,1250.921021 1449.326782,1250.996460 1425.666992,1251.063477   C1423.775513,1251.068726 1421.885986,1251.695679 1419.995483,1252.033813   C1414.244629,1252.033813 1408.493652,1252.033813 1401.995850,1252.033813   C1401.995850,1242.708740 1401.995850,1233.855225 1401.989868,1224.538574  z"/>
<path fill="#DCEEE9" opacity="1.000000" stroke="none" d=" M1419.997559,1252.499268   C1421.885986,1251.695679 1423.775513,1251.068726 1425.666992,1251.063477   C1449.326782,1250.996460 1472.987793,1250.921021 1496.646362,1251.107422   C1501.064697,1251.142212 1504.035278,1250.046021 1506.659668,1246.242554   C1509.175659,1242.596069 1512.859985,1239.763184 1515.982788,1236.526245   C1524.298828,1227.906250 1532.686401,1219.350830 1540.794556,1210.538940   C1542.162231,1209.052612 1542.863403,1206.421509 1542.882935,1204.310181   C1543.045166,1186.816528 1543.113159,1169.318970 1542.878662,1151.827026   C1542.818848,1147.373779 1543.859863,1145.846802 1548.619995,1145.903320   C1570.777466,1146.166016 1592.939941,1146.072632 1615.099609,1145.934204   C1617.226318,1145.920776 1619.909302,1145.325195 1621.380127,1143.966919   C1633.959839,1132.349121 1646.420410,1120.595825 1658.636108,1108.597412   C1660.488892,1106.777466 1661.806763,1103.496704 1661.833130,1100.876099   C1662.079834,1076.218872 1661.992065,1051.558105 1662.033691,1026.425903   C1666.896729,1025.970703 1671.729248,1026.083252 1676.556030,1025.967041   C1679.175903,1025.903931 1680.032959,1026.956909 1680.028931,1029.503906   C1679.978149,1060.984497 1680.016846,1092.465210 1679.926025,1123.945557   C1679.922241,1125.235229 1679.158691,1126.794800 1678.249390,1127.755859   C1675.974365,1130.160400 1673.361328,1132.240723 1670.972900,1134.543457   C1660.558228,1144.583740 1650.260742,1154.748657 1639.688354,1164.619385   C1638.110840,1166.092285 1635.300537,1166.882812 1633.052124,1166.900146   C1611.400024,1167.066772 1589.746094,1166.999634 1568.092773,1167.000244   C1561.002563,1167.000488 1561.000732,1167.001709 1561.000244,1173.848755   C1560.999146,1191.004883 1561.089233,1208.161865 1560.890747,1225.315796   C1560.864990,1227.541992 1559.935913,1230.301758 1558.439941,1231.880981   C1546.660156,1244.317139 1534.740845,1256.627075 1522.587769,1268.697388   C1520.738159,1270.534302 1517.468750,1271.842041 1514.844849,1271.861206   C1485.031494,1272.079834 1455.215088,1271.898560 1425.401611,1272.108276   C1420.869873,1272.140137 1419.576294,1270.773315 1419.920898,1266.450073   C1420.277222,1261.981201 1419.999756,1257.461914 1419.997559,1252.499268  z"/>
<path fill="#DCEEE9" opacity="1.000000" stroke="none" d=" M1005.996582,1252.499146   C1007.885010,1251.695679 1009.774719,1251.068726 1011.666199,1251.063354   C1035.326050,1250.996582 1058.987061,1250.921143 1082.645630,1251.107300   C1087.063599,1251.142090 1090.035156,1250.047485 1092.659424,1246.243164   C1095.175049,1242.596313 1098.859497,1239.763550 1101.982178,1236.526733   C1110.298462,1227.906860 1118.686035,1219.351318 1126.794312,1210.539429   C1128.161865,1209.052979 1128.863037,1206.421997 1128.882690,1204.310669   C1129.045166,1186.817017 1129.113159,1169.319336 1128.878662,1151.827393   C1128.818970,1147.374512 1129.858887,1145.846680 1134.619629,1145.903076   C1156.777100,1146.165771 1178.939697,1146.072632 1201.099365,1145.934204   C1203.226196,1145.920898 1205.909180,1145.325317 1207.379883,1143.967041   C1219.959473,1132.348999 1232.420044,1120.595703 1244.635742,1108.597290   C1246.488647,1106.777466 1247.807007,1103.496826 1247.833252,1100.876221   C1248.079956,1076.218872 1247.992065,1051.558228 1248.033691,1026.426025   C1251.042480,1025.964844 1254.018433,1025.976318 1257.437988,1025.974609   C1257.962158,1053.855591 1258.043091,1081.749756 1258.121704,1109.643921   C1258.129150,1112.260010 1258.122681,1114.876099 1258.122681,1117.697876   C1260.926025,1117.960571 1263.195312,1118.173218 1265.732422,1118.691895   C1266.654175,1123.738281 1265.098755,1127.039917 1261.309814,1130.476562   C1249.369263,1141.306885 1238.120117,1152.896118 1226.366333,1163.939209   C1224.555664,1165.640381 1221.505249,1166.844727 1219.013916,1166.869995   C1196.865845,1167.093628 1174.713501,1167.108276 1152.564941,1166.906006   C1148.300171,1166.867065 1146.815918,1167.809326 1146.887573,1172.379761   C1147.164307,1190.029175 1147.087158,1207.686401 1146.890137,1225.337891   C1146.865356,1227.561523 1145.922241,1230.315186 1144.425415,1231.896362   C1132.764771,1244.213135 1120.814941,1256.255737 1109.078979,1268.502197   C1106.725830,1270.957764 1104.325928,1272.091553 1100.831543,1272.076050   C1071.020752,1271.943237 1041.208374,1271.898071 1011.398499,1272.108276   C1006.863220,1272.140259 1005.577759,1270.766602 1005.920898,1266.448364   C1006.276062,1261.979858 1005.999146,1257.461304 1005.996582,1252.499146  z"/>
<path fill="#A8D7CC" opacity="1.000000" stroke="none" d=" M869.992615,1119.520996   C871.370911,1118.717407 872.753967,1118.084717 874.138245,1118.081909   C902.409729,1118.024536 930.681213,1118.035278 958.952759,1118.054077   C960.075073,1118.054810 961.197327,1118.269165 962.580994,1118.410767   C962.580994,1127.572754 962.580994,1136.483032 961.829102,1145.703857   C938.607300,1146.016113 916.137390,1145.993896 893.667664,1146.062622   C891.776794,1146.068481 889.887695,1146.684937 887.997803,1147.017700   C882.245117,1147.017700 876.492432,1147.017700 869.997925,1147.017700   C869.997925,1137.700439 869.997925,1128.843018 869.992615,1119.520996  z"/>
<path fill="#A9D7CC" opacity="1.000000" stroke="none" d=" M1283.991821,1119.522705   C1285.370728,1118.718994 1286.753540,1118.086182 1288.137817,1118.083374   C1316.408813,1118.026123 1344.679810,1118.036987 1372.950928,1118.055664   C1374.070068,1118.056396 1375.188965,1118.269775 1376.578735,1118.411743   C1376.578735,1127.573364 1376.578735,1136.483521 1375.826904,1145.704346   C1352.605103,1146.016479 1330.135132,1145.993896 1307.665527,1146.062744   C1305.774658,1146.068604 1303.885742,1146.686401 1301.995850,1147.019775   C1296.243530,1147.019775 1290.491089,1147.019775 1283.996460,1147.019775   C1283.996460,1137.701172 1283.996460,1128.844116 1283.991821,1119.522705  z"/>
<path fill="#A9D7CC" opacity="1.000000" stroke="none" d=" M1128.990845,978.013062   C1120.549438,978.013062 1112.108032,978.013062 1102.994019,978.013062   C1102.994019,952.620300 1102.994019,927.738403 1103.043701,902.382690   C1111.477173,901.908875 1119.860718,901.908875 1129.020508,901.908875   C1129.020508,908.622131 1129.020508,914.822937 1129.010254,921.961304   C1128.996948,941.270264 1128.993896,959.641663 1128.990845,978.013062  z"/>
<path fill="#A9D7CC" opacity="1.000000" stroke="none" d=" M1542.990845,978.013062   C1534.549438,978.013062 1526.108032,978.013062 1516.994019,978.013062   C1516.994019,952.620300 1516.994019,927.738403 1517.043701,902.382690   C1525.477173,901.908875 1533.860718,901.908875 1543.020508,901.908875   C1543.020508,908.622131 1543.020508,914.822937 1543.010254,921.961304   C1542.996948,941.270264 1542.993896,959.641663 1542.990845,978.013062  z"/>
<path fill="#DBEEE9" opacity="1.000000" stroke="none" d=" M887.998901,1147.484619   C889.887695,1146.684937 891.776794,1146.068481 893.667664,1146.062622   C916.137390,1145.993896 938.607300,1146.016113 961.547485,1146.008179   C962.023560,1152.703247 962.029419,1159.404541 961.958496,1166.572266   C939.053589,1167.025879 916.224121,1166.882446 893.398315,1167.110474   C888.853760,1167.155884 887.579468,1165.756958 887.921265,1161.442261   C888.275452,1156.971313 888.000061,1152.450439 887.998901,1147.484619  z"/>
<path fill="#DBEEE9" opacity="1.000000" stroke="none" d=" M1301.997803,1147.486450   C1303.885742,1146.686401 1305.774658,1146.068604 1307.665527,1146.062744   C1330.135132,1145.993896 1352.605103,1146.016479 1375.545044,1146.008301   C1376.021851,1152.703125 1376.028687,1159.404541 1375.958618,1166.572266   C1353.054077,1167.025757 1330.224976,1166.882690 1307.399658,1167.110352   C1302.857666,1167.155640 1301.578491,1165.760986 1301.921021,1161.443726   C1302.275757,1156.972900 1301.999878,1152.452026 1301.997803,1147.486450  z"/>
<path fill="#DCEEE9" opacity="1.000000" stroke="none" d=" M1129.458130,978.055298   C1128.993896,959.641663 1128.996948,941.270264 1129.032715,922.426392   C1133.562134,921.969421 1138.069946,922.187622 1142.551514,921.936096   C1146.095337,921.737183 1147.096313,923.046204 1147.066650,926.500366   C1146.922241,943.320312 1147.007935,960.142151 1147.025269,977.422485   C1141.334229,977.953613 1135.629761,978.025574 1129.458130,978.055298  z"/>
<path fill="#DCEEE9" opacity="1.000000" stroke="none" d=" M1543.458130,978.055298   C1542.993896,959.641663 1542.996948,941.270264 1543.032715,922.426392   C1547.562134,921.969421 1552.069946,922.187622 1556.551514,921.936096   C1560.095337,921.737183 1561.096313,923.046204 1561.066650,926.500366   C1560.922241,943.320312 1561.007935,960.142151 1561.025269,977.422485   C1555.334229,977.953552 1549.629761,978.025574 1543.458130,978.055298  z"/>
<path fill="#FFFFFF" opacity="1.000000" stroke="none" d=" M335.326843,1064.929443   C335.049896,1042.908569 335.091095,1020.762451 335.151489,998.616455   C335.152313,998.320129 335.396515,998.024475 335.847748,997.002136   C430.726196,997.002136 525.917664,997.002136 621.582214,997.004761   C611.222046,1008.651306 600.480713,1020.383911 589.442566,1031.830322   C588.014404,1033.311279 585.053223,1033.909912 582.800659,1033.913330   C513.141846,1034.019287 443.482849,1034.028076 373.824036,1033.923340   C370.042145,1033.917603 367.380035,1034.957153 364.691467,1037.665039   C356.385559,1046.031128 347.772003,1054.092529 339.232849,1062.224976   C338.176636,1063.230957 336.848633,1063.951660 335.326843,1064.929443  z"/>
</svg>